700 0 1 0           
30 Autodesk Translation Framework 20 ASM 225.2.0.65535 NT 24 Sun Aug  1 01:26:43 2021 
1 9.999999999999999547e-07 1.000000000000000036e-10 
body $1 -1 $-1 $2 $-1 $3 #
rgb_color-st-attrib $-1 -1 $4 $-1 $0 0.7450980392156862919 0.737254901960784359 0.7294117647058823151 #
lump $-1 -1 $-1 $-1 $5 $0 #
transform $-1 -1 1 0 0 0 1 0 0 0 1 0 0 0 1 no_rotate no_reflect no_shear #
DXID-attrib $-1 -1 $6 $1 $0 @19 ATF Occurrence Path @86 ENSAMBLAJE CADENA Y TROLLEY_@OPS@_<N/A>_@OPS@_AISC - W 8x15 - 118,11024:1_@OPS@_Solid1 #
shell $-1 -1 $-1 $-1 $-1 $7 $-1 $2 #
DXID-attrib $-1 -1 $-1 $4 $0 @18 ASM_BODY_FROM_STEP @83 065D11F0662CBDB13EDA2984FB31E79B05AD1C24|:|8CB3CBCEBE3339AC3139F7812237AD39DB573F35 #
face $8 -1 $-1 $9 $10 $5 $-1 $11 forward single #
DXID-attrib $-1 -1 $-1 $-1 $7 @10 ASM ENTITY @36 586c6da5-7983-43a7-842a-ab696bb64080 #
face $12 -1 $-1 $13 $14 $5 $-1 $15 forward single #
loop $-1 -1 $-1 $-1 $16 $7 #
plane-surface $-1 -1 $-1 -80.12348276833446903 13196.86541807997492 172.0464774325333792 -3.365722900544273558e-16 1 1.22420642183544191e-16 0 -1.224206421835441959e-15 10 forward_v I I I I #
DXID-attrib $-1 -1 $-1 $-1 $9 @18 ASM_FACE_FROM_STEP @33 ENSAMBLAJE CADENA Y TROLLEY-21985 #
face $17 -1 $-1 $18 $19 $5 $-1 $20 reversed single #
loop $-1 -1 $-1 $-1 $21 $9 #
plane-surface $-1 -1 $-1 -128.9468968846622374 -2803.134697120025976 286.1830135187311726 -0.00289208814686025455 1.219431473331731658e-16 -0.9999958179043305639 -11.99994981485197165 0 0.03470505776232305634 forward_v I I I I #
coedge $-1 -1 $-1 $22 $23 $24 $25 forward $10 $-1 #
DXID-attrib $-1 -1 $-1 $-1 $13 @18 ASM_FACE_FROM_STEP @33 ENSAMBLAJE CADENA Y TROLLEY-21986 #
face $26 -1 $-1 $27 $28 $5 $-1 $29 forward single #
loop $-1 -1 $-1 $-1 $30 $13 #
cone-surface $-1 -1 $-1 -90.25243500722609724 -2803.134697120025976 276.9270945172643223 -1.923278524054691248e-16 1 1.224998887416803908e-16 0.005037193728418432048 1.118202232058415484e-15 -9.143990620893491794 0.8000017916597972345 I I -0 1 9.143992008324854481 forward I I I I #
coedge $-1 -1 $-1 $31 $32 $33 $34 reversed $14 $-1 #
coedge $-1 -1 $-1 $35 $16 $36 $37 forward $10 $-1 #
coedge $-1 -1 $-1 $16 $38 $39 $40 forward $10 $-1 #
coedge $-1 -1 $-1 $41 $42 $16 $25 reversed $43 $-1 #
edge $44 -1 $-1 $45 8.933120858128215041e-16 $46 9.802402301432946885 $24 $47 forward @7 unknown #
DXID-attrib $-1 -1 $-1 $-1 $18 @18 ASM_FACE_FROM_STEP @33 ENSAMBLAJE CADENA Y TROLLEY-21987 #
face $48 -1 $-1 $49 $50 $5 $-1 $51 reversed single #
loop $-1 -1 $-1 $-1 $52 $18 #
plane-surface $-1 -1 $-1 -83.11052072874988994 -2803.134697120025976 172.0551162457393275 -0.9999986343923010779 -1.925300377757144671e-16 0.001652638355192515701 0.01983166026231019188 0 11.99998361270761471 forward_v I I I I #
coedge $-1 -1 $-1 $53 $54 $55 $56 reversed $19 $-1 #
coedge $-1 -1 $-1 $57 $21 $58 $59 reversed $14 $-1 #
coedge $-1 -1 $-1 $21 $57 $60 $61 reversed $14 $-1 #
coedge $-1 -1 $-1 $54 $53 $21 $34 forward $19 $-1 #
edge $62 -1 $-1 $63 0 $64 1333.33334293333246 $21 $65 forward @7 tangent #
coedge $-1 -1 $-1 $66 $22 $67 $68 forward $10 $-1 #
coedge $-1 -1 $-1 $69 $70 $22 $37 reversed $71 $-1 #
edge $72 -1 $-1 $46 0 $73 0.9601178497547488977 $36 $74 forward @7 unknown #
coedge $-1 -1 $-1 $23 $75 $76 $77 forward $10 $-1 #
coedge $-1 -1 $-1 $78 $79 $23 $40 reversed $80 $-1 #
edge $81 -1 $-1 $82 0 $45 0.9601178497547524504 $39 $83 forward @7 unknown #
coedge $-1 -1 $-1 $84 $24 $79 $85 reversed $43 $-1 #
coedge $-1 -1 $-1 $24 $84 $69 $86 forward $43 $-1 #
loop $-1 -1 $-1 $-1 $41 $87 #
DXID-attrib $-1 -1 $-1 $-1 $25 @10 ASM ENTITY @36 a37b2b1a-08d2-4d91-8b43-bc5c4e698c14 #
vertex $-1 -1 $-1 $25 $88 #
vertex $-1 -1 $-1 $25 $89 #
straight-curve $-1 -1 $-1 -31.31593592784188473 13196.86541807997492 48.30877596022951792 -9.999958179043304085 -3.369249337651003944e-15 0.02892088146857652725 I I #
DXID-attrib $-1 -1 $-1 $-1 $27 @18 ASM_FACE_FROM_STEP @33 ENSAMBLAJE CADENA Y TROLLEY-21988 #
face $90 -1 $-1 $91 $92 $5 $-1 $93 forward single #
loop $-1 -1 $-1 $-1 $94 $27 #
cone-surface $-1 -1 $-1 -90.59899646049558442 -2803.134697120025976 67.22545052870201232 -1.923278524054691248e-16 1 1.224998887416803908e-16 0.005037193728419097315 1.124012978066649983e-15 -9.143990620893491794 0.8000017916597972345 I I -0 1 9.143992008324854481 forward I I I I #
coedge $-1 -1 $-1 $95 $96 $97 $98 reversed $28 $-1 #
coedge $-1 -1 $-1 $33 $30 $99 $100 reversed $19 $-1 #
coedge $-1 -1 $-1 $30 $33 $101 $102 reversed $19 $-1 #
coedge $-1 -1 $-1 $96 $95 $30 $56 forward $28 $-1 #
edge $103 -1 $-1 $104 0 $105 1333.33334293333246 $30 $106 forward @7 tangent #
coedge $-1 -1 $-1 $32 $31 $107 $108 forward $14 $-1 #
coedge $-1 -1 $-1 $99 $109 $31 $59 forward $110 $-1 #
edge $111 -1 $-1 $112 -2.552700000000023728 $63 1.479549999999981491 $31 $113 forward @7 unknown #
coedge $-1 -1 $-1 $114 $101 $32 $61 forward $10 $-1 #
edge $115 -1 $-1 $64 -1.027476111963337168e-17 $116 3.870973545652943049 $32 $117 forward @7 unknown #
DXID-attrib $-1 -1 $-1 $-1 $34 @18 ASM_EDGE_FROM_STEP @5 15049 #
vertex $-1 -1 $-1 $34 $118 #
vertex $-1 -1 $-1 $102 $119 #
straight-curve $-1 -1 $-1 -90.23732331594983691 -2803.134697120025976 286.0710615516492794 -2.307934228865630681e-15 12.00000000000000888 1.469998664900165183e-15 F 0 F 1333.33334293333246 #
coedge $-1 -1 $-1 $120 $35 $121 $122 forward $10 $-1 #
coedge $-1 -1 $-1 $123 $124 $35 $68 reversed $92 $-1 #
edge $125 -1 $-1 $73 5.137380559818321339e-18 $126 3.870973545652936387 $67 $127 forward @7 unknown #
coedge $-1 -1 $-1 $128 $36 $42 $86 reversed $71 $-1 #
coedge $-1 -1 $-1 $36 $128 $123 $129 forward $71 $-1 #
loop $-1 -1 $-1 $-1 $69 $91 #
DXID-attrib $-1 -1 $-1 $-1 $37 @10 ASM ENTITY @36 f9087336-2662-4024-b504-4f5e305f8c7f #
vertex $-1 -1 $-1 $37 $130 #
straight-curve $-1 -1 $-1 -129.3395489963291993 13196.86541807997492 48.59227007529656817 0.01652638355196147518 -1.218642427291325558e-15 9.999986343923010779 I I #
coedge $-1 -1 $-1 $38 $131 $132 $133 forward $10 $-1 #
coedge $-1 -1 $-1 $134 $135 $38 $77 reversed $136 $-1 #
edge $137 -1 $-1 $138 -8.830373246931857011e-16 $82 3.870973545652938608 $76 $139 forward @7 unknown #
coedge $-1 -1 $-1 $140 $39 $135 $141 reversed $80 $-1 #
coedge $-1 -1 $-1 $39 $140 $41 $85 forward $80 $-1 #
loop $-1 -1 $-1 $-1 $78 $142 #
DXID-attrib $-1 -1 $-1 $-1 $40 @10 ASM ENTITY @36 5280778e-2002-4454-ae18-f334fcb29ae3 #
vertex $-1 -1 $-1 $77 $143 #
straight-curve $-1 -1 $-1 -31.30006865200179078 13196.86541807997492 57.9099413463337882 -0.01652638355193371961 1.218642427291335024e-15 -9.999986343923010779 I I #
coedge $-1 -1 $-1 $42 $41 $144 $145 reversed $43 $-1 #
edge $146 -1 $-1 $147 0 $45 1333.33334293333246 $41 $148 forward @7 unknown #
edge $149 -1 $-1 $150 0 $46 1333.33334293333246 $69 $151 forward @7 unknown #
face $152 -1 $-1 $142 $43 $5 $-1 $153 forward single #
point $-1 -1 $-1 -31.31593592784189184 13196.86541807997492 48.30877596022953924 #
point $-1 -1 $-1 -129.3395489963291993 13196.86541807997492 48.59227007529656817 #
DXID-attrib $-1 -1 $-1 $-1 $49 @18 ASM_FACE_FROM_STEP @33 ENSAMBLAJE CADENA Y TROLLEY-21989 #
face $154 -1 $-1 $87 $71 $5 $-1 $155 forward single #
loop $-1 -1 $-1 $-1 $123 $49 #
plane-surface $-1 -1 $-1 -90.61410815177185896 -2803.134697120025976 58.08148349431700552 0.00289208814685584922 -1.219431473331740286e-16 0.9999958179043305639 11.99994981485197165 0 -0.03470505776227019584 forward_v I I I I #
coedge $-1 -1 $-1 $156 $121 $124 $157 reversed $50 $-1 #
coedge $-1 -1 $-1 $55 $52 $158 $159 reversed $28 $-1 #
coedge $-1 -1 $-1 $52 $55 $120 $160 reversed $28 $-1 #
coedge $-1 -1 $-1 $121 $156 $52 $98 forward $50 $-1 #
edge $161 -1 $-1 $162 0 $163 1333.33334293333246 $52 $164 forward @7 tangent #
coedge $-1 -1 $-1 $158 $58 $53 $100 forward $110 $-1 #
edge $165 -1 $-1 $63 -3.13883826998904869 $104 -1.568041943194156573 $53 $166 forward @7 unknown #
coedge $-1 -1 $-1 $60 $120 $54 $102 forward $10 $-1 #
edge $167 -1 $-1 $105 -1.573550710395644536 $64 -0.00275438360073719567 $54 $168 forward @7 unknown #
DXID-attrib $-1 -1 $-1 $-1 $56 @18 ASM_EDGE_FROM_STEP @5 15053 #
vertex $-1 -1 $-1 $56 $169 #
vertex $-1 -1 $-1 $160 $170 #
straight-curve $-1 -1 $-1 -82.93724000211518899 -2803.134697120025976 276.9059382400204186 -2.307934228865630681e-15 12.00000000000000888 1.469998664900165183e-15 F 0 F 1333.33334293333246 #
coedge $-1 -1 $-1 $171 $172 $57 $108 reversed $173 $-1 #
edge $174 -1 $-1 $112 -360.0000115200001005 $116 1240 $57 $175 forward @7 unknown #
coedge $-1 -1 $-1 $58 $176 $171 $177 forward $110 $-1 #
loop $-1 -1 $-1 $-1 $178 $179 #
DXID-attrib $-1 -1 $-1 $-1 $59 @18 ASM_EDGE_FROM_STEP @5 15050 #
vertex $-1 -1 $-1 $59 $180 #
straight-curve $-1 -1 $-1 -104.4409936175401583 -2803.134697120025976 286.112139989964362 9.599993445027550365 3.234490682560783411e-15 -0.02776414336460405682 F -2.552700000000023728 F 1.479549999999981491 #
coedge $-1 -1 $-1 $181 $60 $172 $182 forward $10 $-1 #
DXID-attrib $-1 -1 $-1 $-1 $61 @10 ASM ENTITY @36 fccc46f8-13ff-4e78-8258-fa03fdcbf815 #
vertex $-1 -1 $-1 $61 $183 #
straight-curve $-1 -1 $-1 -90.23732331595471123 13196.86541807997492 286.0710615516513258 -9.999958179043304085 -3.369249337651001972e-15 0.02892088146856357234 I I #
point $-1 -1 $-1 -90.23732331594983691 -2803.134697120025976 286.0710615516492794 #
point $-1 -1 $-1 -90.23732331595471123 13196.86541807997492 286.0710615516513258 #
coedge $-1 -1 $-1 $101 $66 $96 $160 forward $10 $-1 #
coedge $-1 -1 $-1 $94 $97 $66 $122 reversed $50 $-1 #
edge $184 -1 $-1 $126 3.138838269989053575 $163 4.709634596783941696 $121 $185 forward @7 unknown #
coedge $-1 -1 $-1 $186 $67 $70 $129 reversed $92 $-1 #
coedge $-1 -1 $-1 $67 $186 $94 $157 forward $92 $-1 #
DXID-attrib $-1 -1 $-1 $-1 $68 @10 ASM ENTITY @36 3e1af3bb-ca13-46be-ac02-100a42933ae5 #
vertex $-1 -1 $-1 $68 $187 #
straight-curve $-1 -1 $-1 -129.3236817204890485 13196.86541807997492 58.19343546140079582 9.999958179043305861 3.36924933765100355e-15 -0.02892088146857277678 I I #
coedge $-1 -1 $-1 $70 $69 $188 $189 reversed $71 $-1 #
edge $190 -1 $-1 $191 0 $73 1333.33334293333246 $123 $192 forward @7 unknown #
point $-1 -1 $-1 -129.3236817204890485 13196.86541807997492 58.19343546140078161 #
coedge $-1 -1 $-1 $75 $193 $194 $195 forward $10 $-1 #
coedge $-1 -1 $-1 $196 $197 $75 $133 reversed $198 $-1 #
edge $199 -1 $-1 $200 -1.573550710395644536 $138 -0.002754383600745766505 $132 $201 forward @7 unknown #
coedge $-1 -1 $-1 $202 $76 $197 $203 reversed $136 $-1 #
coedge $-1 -1 $-1 $76 $202 $78 $141 forward $136 $-1 #
loop $-1 -1 $-1 $-1 $134 $204 #
DXID-attrib $-1 -1 $-1 $-1 $77 @10 ASM ENTITY @36 6a76ba56-7db8-4b0b-86c4-780c1c2593a9 #
vertex $-1 -1 $-1 $133 $205 #
straight-curve $-1 -1 $-1 -70.00964222071415577 13196.86541807997492 58.02189331341556056 9.999958179043304085 3.369249337651002366e-15 -0.02892088146856358621 I I #
coedge $-1 -1 $-1 $79 $78 $206 $207 reversed $80 $-1 #
edge $208 -1 $-1 $209 0 $82 1333.33334293333246 $78 $210 forward @7 unknown #
face $211 -1 $-1 $204 $80 $5 $-1 $212 forward single #
point $-1 -1 $-1 -31.30006865200179078 13196.86541807997492 57.9099413463337882 #
coedge $-1 -1 $-1 $206 $188 $84 $145 forward $110 $-1 #
edge $213 -1 $-1 $150 -5.105399999999995053 $147 5.105399999999998606 $84 $214 forward @7 unknown #
DXID-attrib $-1 -1 $-1 $-1 $85 @18 ASM_EDGE_FROM_STEP @5 15068 #
vertex $-1 -1 $-1 $85 $215 #
straight-curve $-1 -1 $-1 -31.31593592783702107 -2803.134697120025976 48.30877596022758524 -2.307934228865630681e-15 12.00000000000000888 1.469998664900165183e-15 F 0 F 1333.33334293333246 #
DXID-attrib $-1 -1 $-1 $-1 $86 @18 ASM_EDGE_FROM_STEP @5 15065 #
vertex $-1 -1 $-1 $86 $216 #
straight-curve $-1 -1 $-1 -129.3395489963242824 -2803.134697120025976 48.59227007529461417 -2.307934228865630681e-15 12.00000000000000888 1.469998664900165183e-15 F 0 F 1333.33334293333246 #
DXID-attrib $-1 -1 $-1 $-1 $87 @18 ASM_FACE_FROM_STEP @33 ENSAMBLAJE CADENA Y TROLLEY-21991 #
plane-surface $-1 -1 $-1 -80.32774246208066415 -2803.134697120025976 48.4505230177610855 -0.002892088146857935659 1.219431473331736095e-16 -0.9999958179043305639 -11.99994981485197165 0 0.03470505776229523137 forward_v I I I I #
DXID-attrib $-1 -1 $-1 $-1 $91 @18 ASM_FACE_FROM_STEP @33 ENSAMBLAJE CADENA Y TROLLEY-21990 #
plane-surface $-1 -1 $-1 -129.3236817204842168 -2803.134697120025976 58.19343546139882761 -0.9999986343923010779 -1.925300377757144671e-16 0.001652638355192424195 0.01983166026230909207 0 11.99998361270761471 forward_v I I I I #
coedge $-1 -1 $-1 $97 $94 $217 $218 reversed $50 $-1 #
edge $219 -1 $-1 $220 0 $126 1333.33334293333246 $94 $221 forward @7 tangent #
coedge $-1 -1 $-1 $217 $99 $95 $159 forward $110 $-1 #
edge $222 -1 $-1 $104 -8.737599999999995148 $162 8.737599999999996925 $95 $223 forward @7 unknown #
edge $224 -1 $-1 $163 0 $105 20.9701930359132902 $96 $225 forward @7 unknown #
DXID-attrib $-1 -1 $-1 $-1 $98 @18 ASM_EDGE_FROM_STEP @5 15056 #
vertex $-1 -1 $-1 $98 $226 #
vertex $-1 -1 $-1 $122 $227 #
straight-curve $-1 -1 $-1 -83.28380145538460511 -2803.134697120025976 67.20429425145817959 -2.307934228865630681e-15 12.00000000000000888 1.469998664900165183e-15 F 0 F 1333.33334293333246 #
DXID-attrib $-1 -1 $-1 $-1 $100 @18 ASM_EDGE_FROM_STEP @5 15054 #
ellipse-curve $-1 -1 $-1 -90.25243500722609724 -2803.134697120025976 276.9270945172643223 -3.365722900544273558e-16 1 1.22420642183544191e-16 0.005037193728418432048 1.121108583758707296e-15 -9.143990620893491794 0.8000017916597972345 F -3.13883826998904869 F -1.568041943194156573 #
DXID-attrib $-1 -1 $-1 $-1 $102 @10 ASM ENTITY @36 d57f580e-6fba-4c44-ac66-8017b65286bd #
ellipse-curve $-1 -1 $-1 -90.25243500723095735 13196.86541807997492 276.927094517266255 3.365722900544273065e-16 -1 -1.224206421835442157e-16 -0.005037193728418433783 -1.121108583758708085e-15 9.143990620893493571 0.8000017916597971235 I I #
point $-1 -1 $-1 -82.93724000211518899 -2803.134697120025976 276.9059382400204186 #
point $-1 -1 $-1 -82.93724000212007752 13196.86541807997492 276.9059382400224081 #
coedge $-1 -1 $-1 $228 $107 $109 $177 reversed $173 $-1 #
coedge $-1 -1 $-1 $107 $228 $114 $182 reversed $173 $-1 #
loop $-1 -1 $-1 $-1 $107 $229 #
DXID-attrib $-1 -1 $-1 $-1 $108 @18 ASM_EDGE_FROM_STEP @5 15051 #
straight-curve $-1 -1 $-1 -128.946896884662948 796.865418079975143 286.1830135187315705 -3.366482719831119603e-15 10 1.224826691683237311e-15 I I #
coedge $-1 -1 $-1 $109 $230 $231 $232 forward $110 $-1 #
edge $233 -1 $-1 $234 -5.149849999999996264 $112 -4.349750000000001116 $171 $235 forward @7 unknown #
coedge $-1 -1 $-1 $236 $206 $202 $237 forward $110 $-1 #
face $238 -1 $-1 $-1 $110 $5 $-1 $239 reversed single #
point $-1 -1 $-1 -128.9468968846622374 -2803.134697120025976 286.1830135187311726 #
coedge $-1 -1 $-1 $240 $114 $241 $242 forward $10 $-1 #
edge $243 -1 $-1 $116 0 $244 0.960117849754745345 $172 $245 forward @7 unknown #
point $-1 -1 $-1 -128.946896884667126 13196.86541807997492 286.1830135187331052 #
DXID-attrib $-1 -1 $-1 $-1 $122 @10 ASM ENTITY @36 4ad5e8c1-c007-4648-a33a-4dc598ff489e #
ellipse-curve $-1 -1 $-1 -90.59899646050044453 13196.86541807997492 67.22545052870400184 3.365722900544273065e-16 -1 -1.22420642183544191e-16 -0.005037193728419099917 -1.121108583758708085e-15 9.143990620893493571 0.8000017916597971235 I I #
coedge $-1 -1 $-1 $124 $123 $246 $247 reversed $92 $-1 #
point $-1 -1 $-1 -90.61410815177671907 13196.86541807997492 58.08148349431898794 #
coedge $-1 -1 $-1 $144 $246 $128 $189 forward $110 $-1 #
edge $248 -1 $-1 $191 4.74979999999999869 $150 5.549899999999996503 $128 $249 forward @7 unknown #
DXID-attrib $-1 -1 $-1 $-1 $129 @18 ASM_EDGE_FROM_STEP @5 15062 #
vertex $-1 -1 $-1 $129 $250 #
straight-curve $-1 -1 $-1 -129.3236817204842168 -2803.134697120025976 58.19343546139882761 -2.307934228865630681e-15 12.00000000000000888 1.469998664900165183e-15 F 0 F 1333.33334293333246 #
coedge $-1 -1 $-1 $131 $251 $252 $253 forward $10 $-1 #
coedge $-1 -1 $-1 $254 $255 $131 $195 reversed $256 $-1 #
edge $257 -1 $-1 $258 0 $200 20.9701930359132902 $194 $259 forward @7 unknown #
coedge $-1 -1 $-1 $260 $132 $255 $261 reversed $198 $-1 #
coedge $-1 -1 $-1 $132 $260 $134 $203 forward $198 $-1 #
loop $-1 -1 $-1 $-1 $196 $262 #
DXID-attrib $-1 -1 $-1 $-1 $133 @10 ASM ENTITY @36 14c3ca04-bb7d-43ba-b682-abacc03a2716 #
vertex $-1 -1 $-1 $195 $263 #
ellipse-curve $-1 -1 $-1 -69.99453052943785281 13196.86541807997492 67.16586034780053183 3.365722900544273065e-16 -1 -1.22420642183544191e-16 0.005037193728418945526 1.121108583758708085e-15 -9.143990620893493571 0.8000017916597971235 I I #
coedge $-1 -1 $-1 $135 $134 $178 $237 reversed $136 $-1 #
edge $264 -1 $-1 $265 0 $138 1333.33334293333246 $134 $266 forward @7 tangent #
face $267 -1 $-1 $262 $136 $5 $-1 $268 forward single #
point $-1 -1 $-1 -70.00964222071415577 13196.86541807997492 58.02189331341554634 #
coedge $-1 -1 $-1 $178 $144 $140 $207 forward $110 $-1 #
edge $269 -1 $-1 $147 -5.149849999999997152 $209 -4.349750000000000227 $140 $270 forward @7 unknown #
DXID-attrib $-1 -1 $-1 $-1 $141 @18 ASM_EDGE_FROM_STEP @5 15071 #
vertex $-1 -1 $-1 $141 $271 #
straight-curve $-1 -1 $-1 -31.30006865199693067 -2803.134697120025976 57.90994134633179868 -2.307934228865630681e-15 12.00000000000000888 1.469998664900165183e-15 F 0 F 1333.33334293333246 #
DXID-attrib $-1 -1 $-1 $-1 $142 @18 ASM_FACE_FROM_STEP @33 ENSAMBLAJE CADENA Y TROLLEY-21992 #
plane-surface $-1 -1 $-1 -31.31593592783702107 -2803.134697120025976 48.30877596022758524 0.9999986343923010779 1.925300377757144671e-16 -0.001652638355192424195 -0.01983166026230909207 0 -11.99998361270761471 forward_v I I I I #
DXID-attrib $-1 -1 $-1 $-1 $145 @18 ASM_EDGE_FROM_STEP @5 15069 #
straight-curve $-1 -1 $-1 -80.32774246208064994 -2803.134697120025976 48.4505230177610855 9.599993445027550365 3.234490682560781439e-15 -0.02776414336458178644 F -5.105399999999995053 F 5.105399999999998606 #
point $-1 -1 $-1 -31.31593592783702107 -2803.134697120025976 48.30877596022758524 #
point $-1 -1 $-1 -129.3395489963242824 -2803.134697120025976 48.59227007529461417 #
coedge $-1 -1 $-1 $246 $158 $156 $218 forward $110 $-1 #
edge $272 -1 $-1 $162 -1.568041943194153021 $220 0.002754383600743115848 $156 $273 forward @7 unknown #
DXID-attrib $-1 -1 $-1 $-1 $157 @18 ASM_EDGE_FROM_STEP @5 15059 #
vertex $-1 -1 $-1 $157 $274 #
straight-curve $-1 -1 $-1 -90.61410815177185896 -2803.134697120025976 58.08148349431700552 -2.307934228865630681e-15 12.00000000000000888 1.469998664900165183e-15 F 0 F 1333.33334293333246 #
DXID-attrib $-1 -1 $-1 $-1 $159 @18 ASM_EDGE_FROM_STEP @5 15057 #
straight-curve $-1 -1 $-1 -83.11052072874988994 -2803.134697120025976 172.0551162457393275 -0.01983161584813981221 1.46236763768387674e-15 -11.99995673803804053 F -8.737599999999996925 F 8.737599999999996925 #
DXID-attrib $-1 -1 $-1 $-1 $160 @10 ASM ENTITY @36 b8630a31-0828-4401-8505-5c7008eb044b #
straight-curve $-1 -1 $-1 -83.28380145538946522 13196.86541807997492 67.20429425146014069 0.01652638355192447006 -1.21864242729133818e-15 9.999986343923012555 I I #
point $-1 -1 $-1 -83.28380145538460511 -2803.134697120025976 67.20429425145817959 #
point $-1 -1 $-1 -83.28380145538946522 13196.86541807997492 67.20429425146014069 #
coedge $-1 -1 $-1 $172 $171 $275 $276 forward $173 $-1 #
face $277 -1 $-1 $179 $173 $5 $-1 $278 forward single #
coedge $-1 -1 $-1 $176 $279 $280 $281 forward $110 $-1 #
coedge $-1 -1 $-1 $282 $275 $176 $232 reversed $283 $-1 #
edge $284 -1 $-1 $285 -5.105399999999988836 $234 5.105400000000004823 $231 $286 forward @7 unknown #
DXID-attrib $-1 -1 $-1 $-1 $177 @18 ASM_EDGE_FROM_STEP @5 15095 #
vertex $-1 -1 $-1 $276 $287 #
straight-curve $-1 -1 $-1 -129.0331594556976711 -2803.134697120025976 233.9862016974501557 -0.01983161584814937053 1.46236763768387319e-15 -11.99995673803804053 F -5.149849999999997152 F -4.349749999999999339 #
coedge $-1 -1 $-1 $288 $178 $260 $289 forward $110 $-1 #
edge $290 -1 $-1 $209 -2.552699999999997971 $265 1.479550000000002807 $202 $291 forward @7 unknown #
DXID-attrib $-1 -1 $-1 $-1 $179 @18 ASM_FACE_FROM_STEP @33 ENSAMBLAJE CADENA Y TROLLEY-22001 #
plane-surface $-1 -1 $-1 -80.12348276832955207 -2803.134697120025976 172.0464774325313897 -3.365722900544273558e-16 1 1.22420642183544191e-16 0 -1.469047706202530391e-15 12.00000000000000178 forward_v I I I I #
coedge $-1 -1 $-1 $251 $181 $292 $293 forward $10 $-1 #
coedge $-1 -1 $-1 $275 $282 $181 $242 reversed $283 $-1 #
edge $294 -1 $-1 $244 1.76607464938636943e-15 $295 9.802402301432946885 $241 $296 forward @7 unknown #
DXID-attrib $-1 -1 $-1 $-1 $182 @10 ASM ENTITY @36 28435827-027c-431d-a1ae-7e1ca91d71ce #
vertex $-1 -1 $-1 $182 $297 #
straight-curve $-1 -1 $-1 -128.946896884667126 13196.86541807997492 286.1830135187331052 0.01652638355192447006 -1.21864242729133818e-15 9.999986343923010779 I I #
coedge $-1 -1 $-1 $188 $217 $186 $247 forward $110 $-1 #
edge $298 -1 $-1 $220 0.5365750000000080178 $191 4.568825000000005687 $186 $299 forward @7 unknown #
DXID-attrib $-1 -1 $-1 $-1 $189 @18 ASM_EDGE_FROM_STEP @5 15066 #
straight-curve $-1 -1 $-1 -129.2294855115286794 -2803.134697120025976 115.1908299757319156 -0.01983161584813871239 1.462367637683877331e-15 -11.99995673803804053 F 4.74979999999999869 F 5.549899999999996503 #
point $-1 -1 $-1 -129.3236817204842168 -2803.134697120025976 58.19343546139882761 #
coedge $-1 -1 $-1 $193 $240 $300 $301 forward $10 $-1 #
coedge $-1 -1 $-1 $302 $303 $193 $253 reversed $304 $-1 #
edge $305 -1 $-1 $306 3.138838269989052243 $258 4.709634596783941696 $252 $307 forward @7 unknown #
coedge $-1 -1 $-1 $308 $194 $303 $309 reversed $256 $-1 #
coedge $-1 -1 $-1 $194 $308 $196 $261 forward $256 $-1 #
loop $-1 -1 $-1 $-1 $254 $310 #
DXID-attrib $-1 -1 $-1 $-1 $195 @10 ASM ENTITY @36 75831ae9-b7e2-4f1c-8319-2aa89e329744 #
vertex $-1 -1 $-1 $253 $311 #
straight-curve $-1 -1 $-1 -76.96316408127935915 13196.86541807997492 276.888660613606703 -0.01652638355192870279 1.218642427291336799e-15 -9.999986343923010779 I I #
coedge $-1 -1 $-1 $197 $196 $236 $289 reversed $198 $-1 #
edge $312 -1 $-1 $313 0 $200 1333.33334293333246 $196 $314 forward @7 tangent #
face $315 -1 $-1 $310 $198 $5 $-1 $316 reversed single #
point $-1 -1 $-1 -77.30972553454884633 13196.86541807997492 67.18701662504439298 #
DXID-attrib $-1 -1 $-1 $-1 $203 @18 ASM_EDGE_FROM_STEP @5 15074 #
vertex $-1 -1 $-1 $203 $317 #
straight-curve $-1 -1 $-1 -70.00964222070928145 -2803.134697120025976 58.02189331341359946 -2.307934228865630681e-15 12.00000000000000888 1.469998664900165183e-15 F 0 F 1333.33334293333246 #
DXID-attrib $-1 -1 $-1 $-1 $204 @18 ASM_FACE_FROM_STEP @33 ENSAMBLAJE CADENA Y TROLLEY-21993 #
plane-surface $-1 -1 $-1 -31.30006865199693067 -2803.134697120025976 57.90994134633179868 0.002892088146859703775 -1.21943147333173289e-16 0.9999958179043305639 11.99994981485197165 0 -0.03470505776231645745 forward_v I I I I #
DXID-attrib $-1 -1 $-1 $-1 $207 @18 ASM_EDGE_FROM_STEP @5 15072 #
straight-curve $-1 -1 $-1 -31.21380608096149345 -2803.134697120025976 110.10675316761278 0.01983161584813871239 -1.462367637683877331e-15 11.99995673803804053 F -5.149849999999997152 F -4.349749999999999339 #
point $-1 -1 $-1 -31.30006865199693067 -2803.134697120025976 57.90994134633179868 #
DXID-attrib $-1 -1 $-1 $-1 $218 @18 ASM_EDGE_FROM_STEP @5 15060 #
ellipse-curve $-1 -1 $-1 -90.59899646049558442 -2803.134697120025976 67.22545052870201232 -3.365722900544273558e-16 1 1.22420642183544191e-16 0.005037193728419097315 1.121108583758707888e-15 -9.143990620893491794 0.8000017916597972345 F -1.568041943194155241 F 0.002754383600743115848 #
point $-1 -1 $-1 -90.61410815177185896 -2803.134697120025976 58.08148349431700552 #
coedge $-1 -1 $-1 $231 $241 $228 $276 reversed $283 $-1 #
edge $318 -1 $-1 $234 0 $244 1333.33334293333246 $275 $319 forward @7 unknown #
DXID-attrib $-1 -1 $-1 $-1 $229 @18 ASM_FACE_FROM_STEP @33 ENSAMBLAJE CADENA Y TROLLEY-22000 #
plane-surface $-1 -1 $-1 -128.9310296088221435 -2803.134697120025976 295.7841789048352439 -0.9999986343923010779 -1.925300377757145904e-16 0.001652638355193312373 0.01983166026231975021 0 11.99998361270761471 forward_v I I I I #
coedge $-1 -1 $-1 $230 $320 $321 $322 forward $110 $-1 #
coedge $-1 -1 $-1 $323 $324 $230 $281 reversed $325 $-1 #
edge $326 -1 $-1 $327 4.74979999999999869 $285 5.549899999999995615 $280 $328 forward @7 unknown #
coedge $-1 -1 $-1 $241 $231 $324 $329 forward $283 $-1 #
loop $-1 -1 $-1 $-1 $275 $330 #
DXID-attrib $-1 -1 $-1 $-1 $232 @18 ASM_EDGE_FROM_STEP @5 15093 #
vertex $-1 -1 $-1 $329 $331 #
straight-curve $-1 -1 $-1 -79.91922307457842578 -2803.134697120025976 295.6424318473017365 -9.599993445027550365 -3.234490682560781439e-15 0.02776414336458597754 F -5.105399999999988836 F 5.105400000000004823 #
point $-1 -1 $-1 -128.9310296088221435 -2803.134697120025976 295.7841789048352439 #
coedge $-1 -1 $-1 $320 $236 $308 $332 forward $110 $-1 #
edge $333 -1 $-1 $265 -3.13883826998904869 $313 -1.568041943194153021 $260 $334 forward @7 unknown #
DXID-attrib $-1 -1 $-1 $-1 $237 @18 ASM_EDGE_FROM_STEP @5 15075 #
straight-curve $-1 -1 $-1 -55.80597191911873978 -2803.134697120025976 57.98081487509854526 -9.599993445027550365 -3.234490682560783411e-15 0.02776414336459876939 F -2.552699999999998415 F 1.47955000000000414 #
coedge $-1 -1 $-1 $324 $323 $240 $293 reversed $325 $-1 #
edge $335 -1 $-1 $295 0 $336 0.9601178497547524504 $292 $337 forward @7 unknown #
DXID-attrib $-1 -1 $-1 $-1 $242 @10 ASM ENTITY @36 5885aa61-fdb5-4c85-9d14-2ecc7787ab87 #
vertex $-1 -1 $-1 $242 $338 #
straight-curve $-1 -1 $-1 -128.931029608827032 13196.86541807997492 295.7841789048372334 9.999958179043304085 3.369249337651002366e-15 -0.02892088146856928305 I I #
point $-1 -1 $-1 -128.9310296088270036 13196.86541807997492 295.7841789048372902 #
DXID-attrib $-1 -1 $-1 $-1 $247 @18 ASM_EDGE_FROM_STEP @5 15063 #
straight-curve $-1 -1 $-1 -85.46299166900612931 -2803.134697120025976 58.06658594909115578 -9.599993445027550365 -3.234490682560779072e-15 0.0277641433645617608 F 0.5365750000000074627 F 4.568825000000005687 #
coedge $-1 -1 $-1 $339 $340 $251 $301 reversed $341 $-1 #
edge $342 -1 $-1 $336 -4.543621137461411541e-16 $306 3.870973545652936831 $300 $343 forward @7 unknown #
coedge $-1 -1 $-1 $344 $252 $340 $345 reversed $304 $-1 #
coedge $-1 -1 $-1 $252 $344 $254 $309 forward $304 $-1 #
loop $-1 -1 $-1 $-1 $302 $346 #
DXID-attrib $-1 -1 $-1 $-1 $253 @10 ASM ENTITY @36 598b4a79-3b77-481b-aec8-1245e355f353 #
vertex $-1 -1 $-1 $301 $347 #
ellipse-curve $-1 -1 $-1 -69.6479690761684509 13196.86541807997492 276.8675043363628561 3.365722900544273065e-16 -1 -1.22420642183544191e-16 0.005037193728419099917 1.121108583758708085e-15 -9.143990620893493571 0.8000017916597971235 I I #
coedge $-1 -1 $-1 $255 $254 $288 $332 reversed $256 $-1 #
edge $348 -1 $-1 $349 0 $258 1333.33334293333246 $254 $350 forward @7 tangent #
face $351 -1 $-1 $346 $256 $5 $-1 $352 forward single #
point $-1 -1 $-1 -76.96316408127935915 13196.86541807997492 276.888660613606703 #
DXID-attrib $-1 -1 $-1 $-1 $261 @18 ASM_EDGE_FROM_STEP @5 15077 #
vertex $-1 -1 $-1 $261 $353 #
straight-curve $-1 -1 $-1 -77.309725534543972 -2803.134697120025976 67.18701662504241767 -2.307934228865630681e-15 12.00000000000000888 1.469998664900165183e-15 F 0 F 1333.33334293333246 #
DXID-attrib $-1 -1 $-1 $-1 $262 @18 ASM_FACE_FROM_STEP @33 ENSAMBLAJE CADENA Y TROLLEY-21994 #
cone-surface $-1 -1 $-1 -69.99453052943297848 -2803.134697120025976 67.16586034779858494 -1.923278524054691248e-16 1 1.224998887416803908e-16 -0.00503719372841894119 -1.118202232058416273e-15 9.143990620893491794 0.8000017916597972345 I I -0 1 9.143992008324854481 forward I I I I #
point $-1 -1 $-1 -70.00964222070928145 -2803.134697120025976 58.02189331341359946 #
DXID-attrib $-1 -1 $-1 $-1 $276 @18 ASM_EDGE_FROM_STEP @5 15092 #
straight-curve $-1 -1 $-1 -128.9310296088221435 -2803.134697120025976 295.7841789048352439 -2.307934228865630681e-15 12.00000000000000888 1.469998664900165183e-15 F 0 F 1333.33334293333246 #
coedge $-1 -1 $-1 $279 $288 $344 $354 forward $110 $-1 #
coedge $-1 -1 $-1 $340 $339 $279 $322 reversed $341 $-1 #
edge $355 -1 $-1 $356 0.5365750000000034658 $327 4.568825000000003023 $321 $357 forward @7 unknown #
coedge $-1 -1 $-1 $292 $280 $339 $358 forward $325 $-1 #
coedge $-1 -1 $-1 $280 $292 $282 $329 reversed $325 $-1 #
loop $-1 -1 $-1 $-1 $324 $359 #
DXID-attrib $-1 -1 $-1 $-1 $281 @18 ASM_EDGE_FROM_STEP @5 15090 #
vertex $-1 -1 $-1 $358 $360 #
straight-curve $-1 -1 $-1 -31.01748002513046387 -2803.134697120025976 228.9021248893310201 0.01983161584814937053 -1.46236763768387319e-15 11.99995673803804053 F 4.74979999999999869 F 5.549899999999996503 #
edge $361 -1 $-1 $285 0 $295 1333.33334293333246 $324 $362 forward @7 unknown #
face $363 -1 $-1 $229 $283 $5 $-1 $364 forward single #
point $-1 -1 $-1 -30.90741654033487151 -2803.134697120025976 295.5006847897682292 #
edge $365 -1 $-1 $313 -8.737599999999996925 $349 8.737599999999996925 $308 $366 forward @7 unknown #
DXID-attrib $-1 -1 $-1 $-1 $289 @18 ASM_EDGE_FROM_STEP @5 15078 #
ellipse-curve $-1 -1 $-1 -69.99453052943297848 -2803.134697120025976 67.16586034779858494 -3.365722900544273558e-16 1 1.22420642183544191e-16 -0.00503719372841894119 -1.12110858375870769e-15 9.143990620893491794 0.8000017916597972345 F -3.13883826998904869 F -1.568041943194153021 #
DXID-attrib $-1 -1 $-1 $-1 $293 @10 ASM ENTITY @36 bdf2154f-243b-4c38-8f87-14efb31a102d #
vertex $-1 -1 $-1 $293 $367 #
straight-curve $-1 -1 $-1 -30.90741654033973163 13196.86541807997492 295.5006847897702755 -0.01652638355192447006 1.21864242729133818e-15 -9.999986343923010779 I I #
point $-1 -1 $-1 -30.90741654033973163 13196.86541807997492 295.5006847897702755 #
coedge $-1 -1 $-1 $321 $300 $323 $358 reversed $341 $-1 #
coedge $-1 -1 $-1 $300 $321 $302 $345 forward $341 $-1 #
loop $-1 -1 $-1 $-1 $339 $368 #
DXID-attrib $-1 -1 $-1 $-1 $301 @10 ASM ENTITY @36 0f949cfd-7c43-495e-a9cf-0388788352d9 #
straight-curve $-1 -1 $-1 -30.92328381617983268 13196.86541807997492 285.8995194036660905 -9.999958179043305861 -3.369249337651004338e-15 0.02892088146858195347 I I #
coedge $-1 -1 $-1 $303 $302 $320 $354 reversed $304 $-1 #
edge $369 -1 $-1 $356 0 $306 1333.33334293333246 $302 $370 forward @7 tangent #
face $371 -1 $-1 $368 $304 $5 $-1 $372 reversed single #
point $-1 -1 $-1 -69.63285738489217636 13196.86541807997492 286.0114713707479268 #
DXID-attrib $-1 -1 $-1 $-1 $309 @18 ASM_EDGE_FROM_STEP @5 15080 #
vertex $-1 -1 $-1 $309 $373 #
straight-curve $-1 -1 $-1 -76.96316408127449904 -2803.134697120025976 276.8886606136047135 -2.307934228865630681e-15 12.00000000000000888 1.469998664900165183e-15 F 0 F 1333.33334293333246 #
DXID-attrib $-1 -1 $-1 $-1 $310 @18 ASM_FACE_FROM_STEP @33 ENSAMBLAJE CADENA Y TROLLEY-21995 #
plane-surface $-1 -1 $-1 -77.13644480790925684 -2803.134697120025976 172.0378386193235087 0.9999986343923010779 1.925300377757145165e-16 -0.001652638355192815591 -0.01983166026231379317 0 -11.99998361270761471 forward_v I I I I #
point $-1 -1 $-1 -77.309725534543972 -2803.134697120025976 67.18701662504241767 #
edge $374 -1 $-1 $349 -1.568041943194151688 $356 0.002754383600741663884 $344 $375 forward @7 unknown #
DXID-attrib $-1 -1 $-1 $-1 $322 @18 ASM_EDGE_FROM_STEP @5 15087 #
vertex $-1 -1 $-1 $345 $376 #
straight-curve $-1 -1 $-1 -74.78397386765298904 -2803.134697120025976 286.026368915971716 9.599993445027550365 3.234490682560779072e-15 -0.02776414336456704476 F 0.5365750000000022446 F 4.568825000000003023 #
edge $377 -1 $-1 $327 0 $336 1333.33334293333246 $339 $378 forward @7 unknown #
face $379 -1 $-1 $330 $325 $5 $-1 $380 forward single #
point $-1 -1 $-1 -30.92328381617496902 -2803.134697120025976 285.8995194036639873 #
DXID-attrib $-1 -1 $-1 $-1 $329 @18 ASM_EDGE_FROM_STEP @5 15089 #
straight-curve $-1 -1 $-1 -30.90741654033487151 -2803.134697120025976 295.5006847897682292 -2.307934228865630681e-15 12.00000000000000888 1.469998664900165183e-15 F 0 F 1333.33334293333246 #
DXID-attrib $-1 -1 $-1 $-1 $330 @18 ASM_FACE_FROM_STEP @33 ENSAMBLAJE CADENA Y TROLLEY-21999 #
plane-surface $-1 -1 $-1 -79.91922307457843999 -2803.134697120025976 295.6424318473017365 0.002892088146858371074 -1.219431473331735355e-16 0.9999958179043305639 11.99994981485197165 0 -0.03470505776230045636 forward_v I I I I #
DXID-attrib $-1 -1 $-1 $-1 $332 @18 ASM_EDGE_FROM_STEP @5 15081 #
straight-curve $-1 -1 $-1 -77.13644480790925684 -2803.134697120025976 172.0378386193235087 0.01983161584814340656 -1.462367637683875359e-15 11.99995673803804053 F -8.737599999999996925 F 8.737599999999996925 #
point $-1 -1 $-1 -30.92328381617982558 13196.86541807997492 285.8995194036660337 #
face $381 -1 $-1 $359 $341 $5 $-1 $382 forward single #
DXID-attrib $-1 -1 $-1 $-1 $345 @18 ASM_EDGE_FROM_STEP @5 15083 #
straight-curve $-1 -1 $-1 -69.63285738488730203 -2803.134697120025976 286.0114713707458804 -2.307934228865630681e-15 12.00000000000000888 1.469998664900165183e-15 F 0 F 1333.33334293333246 #
DXID-attrib $-1 -1 $-1 $-1 $346 @18 ASM_FACE_FROM_STEP @33 ENSAMBLAJE CADENA Y TROLLEY-21996 #
cone-surface $-1 -1 $-1 -69.64796907616357657 -2803.134697120025976 276.8675043363608665 -1.923278524054691248e-16 1 1.224998887416803908e-16 -0.005037193728419097315 -1.124012978066649983e-15 9.143990620893491794 0.8000017916597972345 I I -0 1 9.143992008324854481 forward I I I I #
point $-1 -1 $-1 -76.96316408127449904 -2803.134697120025976 276.8886606136047135 #
DXID-attrib $-1 -1 $-1 $-1 $354 @18 ASM_EDGE_FROM_STEP @5 15084 #
ellipse-curve $-1 -1 $-1 -69.64796907616357657 -2803.134697120025976 276.8675043363608665 -3.365722900544273558e-16 1 1.22420642183544191e-16 -0.005037193728419097315 -1.121108583758707888e-15 9.143990620893491794 0.8000017916597972345 F -1.568041943194156351 F 0.002754383600741663884 #
point $-1 -1 $-1 -69.63285738488730203 -2803.134697120025976 286.0114713707458804 #
DXID-attrib $-1 -1 $-1 $-1 $358 @18 ASM_EDGE_FROM_STEP @5 15086 #
straight-curve $-1 -1 $-1 -30.92328381617496902 -2803.134697120025976 285.8995194036639873 -2.307934228865630681e-15 12.00000000000000888 1.469998664900165183e-15 F 0 F 1333.33334293333246 #
DXID-attrib $-1 -1 $-1 $-1 $359 @18 ASM_FACE_FROM_STEP @33 ENSAMBLAJE CADENA Y TROLLEY-21998 #
plane-surface $-1 -1 $-1 -30.92328381617496902 -2803.134697120025976 285.8995194036639873 0.9999986343923010779 1.925300377757145904e-16 -0.001652638355193312373 -0.01983166026231975021 0 -11.99998361270761471 forward_v I I I I #
DXID-attrib $-1 -1 $-1 $-1 $368 @18 ASM_FACE_FROM_STEP @33 ENSAMBLAJE CADENA Y TROLLEY-21997 #
plane-surface $-1 -1 $-1 -69.63285738488730203 -2803.134697120025976 286.0114713707458804 -0.002892088146856399561 1.219431473331739053e-16 -0.9999958179043305639 -11.99994981485197165 0 0.03470505776227679473 forward_v I I I I #
End-of-ACIS-data 